<svg width="50" height="50" viewBox="0 0 50 50" fill="none" xmlns="http://www.w3.org/2000/svg">
<g opacity="0.2">
<path d="M30.9524 25C30.9524 28.2874 28.2874 30.9524 25 30.9524C21.7126 30.9524 19.0476 28.2874 19.0476 25C19.0476 21.7126 21.7126 19.0476 25 19.0476C28.2874 19.0476 30.9524 21.7126 30.9524 25Z" fill="white"/>
<path fill-rule="evenodd" clip-rule="evenodd" d="M25 50C37.5945 50 48.0139 40.6868 49.7468 28.5714H35.1046C33.6338 32.7328 29.6651 35.7143 25 35.7143C20.3349 35.7143 16.3662 32.7328 14.8954 28.5714H0.253174C1.98614 40.6868 12.4055 50 25 50ZM14.8954 21.4286H0.253174C1.98614 9.31324 12.4055 0 25 0C37.5945 0 48.0139 9.31324 49.7468 21.4286H35.1046C33.6338 17.2672 29.6651 14.2857 25 14.2857C20.3349 14.2857 16.3662 17.2672 14.8954 21.4286ZM30.9524 25C30.9524 28.2874 28.2874 30.9524 25 30.9524C21.7126 30.9524 19.0476 28.2874 19.0476 25C19.0476 21.7126 21.7126 19.0476 25 19.0476C28.2874 19.0476 30.9524 21.7126 30.9524 25Z" fill="white"/>
</g>
</svg>
